<svg width="720" height="565" viewBox="0 0 720 565" fill="none" xmlns="http://www.w3.org/2000/svg">
<g clip-path="url(#clip0)">
<path d="M538.683 -62.8137C517.642 -17.5849 521.621 10.7714 550.618 22.2552C594.114 39.4809 697.539 46.371 740.77 83.738C784 121.104 915.815 92.2175 938.358 28.085C960.901 -36.0475 1001.49 -134.897 787.459 -134.897C644.77 -134.897 561.846 -110.869 538.683 -62.8137H538.683Z" fill="#FFFA72"/>
<path d="M188.311 26.4874C129.397 153.128 140.538 232.526 221.729 264.68C343.518 312.912 633.108 332.205 754.156 436.832C875.2 541.458 1244.28 460.575 1307.4 281.004C1370.52 101.433 1484.17 -175.345 884.886 -175.345C485.356 -175.345 253.17 -108.069 188.313 26.4874H188.311Z" fill="#FBFFFE"/>
<path d="M217.509 16.0198C161.75 135.876 172.295 211.02 249.136 241.452C364.401 287.1 638.477 305.359 753.041 404.382C867.6 503.403 1216.91 426.853 1276.65 256.901C1336.39 86.9502 1443.95 -175 876.767 -175C498.641 -175 278.893 -111.328 217.51 16.0198H217.509Z" fill="#F0FFFB"/>
<path d="M246.706 8.57806C194.104 121.65 204.052 192.541 276.544 221.25C385.284 264.314 643.846 281.54 751.925 374.957C860 468.373 1189.54 396.156 1245.89 235.825C1302.25 75.4936 1403.73 -171.629 868.648 -171.629C511.925 -171.629 304.616 -111.561 246.708 8.57806H246.706Z" fill="#E0F9F3"/>
<path d="M275.904 1.13622C226.458 107.424 235.809 174.061 303.951 201.048C406.167 241.528 649.216 257.72 750.81 345.533C852.4 433.344 1162.16 365.46 1215.14 214.748C1268.12 64.0368 1363.5 -168.259 860.529 -168.259C525.21 -168.259 330.339 -111.795 275.906 1.13622H275.904Z" fill="#CBF0E7"/>
<path d="M305.101 -6.30548C258.812 93.1979 267.566 155.582 331.358 180.846C427.05 218.743 654.585 233.901 749.694 316.108C844.8 398.314 1134.79 334.763 1184.39 193.672C1233.98 52.5802 1323.28 -164.888 852.41 -164.888C538.494 -164.888 356.062 -112.028 305.103 -6.30548H305.101Z" fill="#C0EAE0"/>
<path d="M334.299 -13.7472C291.165 78.9718 299.322 137.102 358.766 160.644C447.933 195.957 659.954 210.081 748.579 286.684C837.2 363.285 1107.42 304.067 1153.63 172.595C1199.85 41.1235 1283.06 -161.517 844.291 -161.517C551.779 -161.517 381.785 -112.262 334.301 -13.7472H334.299Z" fill="#B6E1D7"/>
<path d="M363.497 -18.1632C323.519 67.7715 331.079 121.648 386.173 143.468C468.816 176.197 665.323 189.288 747.463 260.285C829.6 331.281 1080.05 276.396 1122.88 154.544C1165.71 32.6926 1242.83 -155.121 836.173 -155.121C565.063 -155.121 407.508 -109.469 363.498 -18.1632H363.497Z" fill="#B0DCD2"/>
<path d="M392.694 -25.6049C355.873 53.5455 362.836 103.169 413.581 123.266C489.699 153.411 670.693 165.468 746.348 230.861C822 296.252 1052.68 245.7 1092.13 133.468C1131.58 21.236 1202.61 -151.75 828.054 -151.75C578.348 -151.75 433.231 -109.702 392.696 -25.6049H392.694Z" fill="#A9D5CB"/>
<path d="M421.892 -33.0466C388.227 39.3195 394.593 84.6896 440.988 103.064C510.582 130.625 676.062 141.649 745.232 201.436C814.4 261.222 1025.3 215.003 1061.37 112.391C1097.44 9.77934 1162.39 -148.379 819.935 -148.379C591.632 -148.379 458.954 -109.936 421.893 -33.0466H421.892Z" fill="#A2CEC4"/>
<path d="M451.09 -40.4884C420.581 25.0933 426.35 66.21 468.395 82.8615C531.465 107.839 681.431 117.829 744.117 172.012C806.8 226.193 997.931 184.307 1030.62 91.3147C1063.31 -1.67743 1122.16 -145.009 811.816 -145.009C604.917 -145.009 484.677 -110.169 451.091 -40.4884H451.09Z" fill="#97C7BC"/>
<path d="M480.287 -47.9301C452.934 10.8673 458.107 47.7305 495.803 62.6594C552.348 85.0528 686.8 94.01 743.001 142.587C799.2 191.163 970.559 153.61 999.865 70.2382C1029.17 -13.1341 1081.94 -141.638 803.697 -141.638C618.201 -141.638 510.4 -110.403 480.288 -47.9301H480.287Z" fill="#8EBEB3"/>
<path d="M509.485 -55.3718C485.288 -3.35872 489.864 29.251 523.21 42.4574C573.231 62.2669 692.169 70.1906 741.886 113.163C791.6 156.134 943.187 122.914 969.112 49.1617C995.037 -24.5907 1041.71 -138.267 795.578 -138.267C631.486 -138.267 536.123 -110.636 509.486 -55.3718H509.485Z" fill="#86B7AB"/>
</g>
<defs>
<clipPath id="clip0">
<rect width="880" height="653" fill="white" transform="translate(0 -88)"/>
</clipPath>
</defs>
</svg>
