<svg
  width="161"
  height="27"
  viewBox="0 0 161 27"
  fill="none"
  xmlns="http://www.w3.org/2000/svg"
>
  <path
    d="M0.937744 1.10685V0H17.5405V1.10685H0.937744ZM0.937744 3.32055V2.2137H17.5405V3.32055H0.937744ZM0.937744 5.53426V4.42741H17.5405V5.53426H13.1131V25.4576H12.0063V5.53426H10.8994V25.4576H9.79256V5.53426H8.6857V25.4576H7.57885V5.53426H6.472V25.4576H5.36515V5.53426H0.937744Z"
    fill="black"
  />
  <path
    d="M28.5168 11.2684C27.6559 12.1292 27.2255 13.1695 27.2255 14.3891C27.2255 15.6087 27.6559 16.654 28.5168 17.5251C29.3879 18.386 30.4333 18.8165 31.6529 18.8165C32.8725 18.8165 33.9127 18.386 34.7736 17.5251C35.6447 16.654 36.0803 15.6087 36.0803 14.3891C36.0803 13.1695 35.6447 12.1292 34.7736 11.2684C33.9127 10.3972 32.8725 9.96166 31.6529 9.96166C30.4333 9.96166 29.3879 10.3972 28.5168 11.2684ZM27.7328 18.3092C26.6567 17.2228 26.1186 15.9161 26.1186 14.3891C26.1186 12.862 26.6567 11.5604 27.7328 10.4843C28.8191 9.39799 30.1258 8.85481 31.6529 8.85481C33.1799 8.85481 34.4815 9.39799 35.5576 10.4843C36.644 11.5604 37.1871 12.862 37.1871 14.3891C37.1871 15.9161 36.644 17.2228 35.5576 18.3092C34.4815 19.3853 33.1799 19.9233 31.6529 19.9233C30.1258 19.9233 28.8191 19.3853 27.7328 18.3092ZM26.9488 9.70032C25.6574 11.0019 25.0118 12.5648 25.0118 14.3891C25.0118 16.2133 25.6574 17.7762 26.9488 19.0778C28.2503 20.3794 29.8184 21.0302 31.6529 21.0302C33.4874 21.0302 35.0503 20.3794 36.3416 19.0778C37.6432 17.7762 38.294 16.2133 38.294 14.3891C38.294 12.5648 37.6432 11.0019 36.3416 9.70032C35.0503 8.39875 33.4874 7.74796 31.6529 7.74796C29.8184 7.74796 28.2503 8.39875 26.9488 9.70032ZM24.9349 18.2784C24.2482 17.0896 23.9049 15.7931 23.9049 14.3891C23.9049 12.985 24.2482 11.6886 24.9349 10.4997C25.6318 9.31088 26.5747 8.37313 27.7635 7.68647C28.9524 6.98956 30.2488 6.64111 31.6529 6.64111C33.0569 6.64111 34.3534 6.98956 35.5422 7.68647C36.7311 8.37313 37.6688 9.31088 38.3555 10.4997C39.0524 11.6886 39.4008 12.985 39.4008 14.3891C39.4008 15.7931 39.0524 17.0896 38.3555 18.2784C37.6688 19.4673 36.7311 20.4101 35.5422 21.107C34.3534 21.7937 33.0569 22.137 31.6529 22.137C30.2488 22.137 28.9524 21.7937 27.7635 21.107C26.5747 20.4101 25.6318 19.4673 24.9349 18.2784ZM23.4898 10.9609C23.0287 12.0473 22.7981 13.19 22.7981 14.3891C22.7981 15.5882 23.0287 16.736 23.4898 17.8326C23.9613 18.919 24.5916 19.8618 25.3807 20.6612C26.1801 21.4504 27.123 22.0807 28.2093 22.5521C29.3059 23.0133 30.4538 23.2439 31.6529 23.2439C32.852 23.2439 33.9947 23.0133 35.081 22.5521C36.1776 22.0807 37.1205 21.4504 37.9097 20.6612C38.7091 19.8618 39.3393 18.919 39.8005 17.8326C40.272 16.736 40.5077 15.5882 40.5077 14.3891C40.5077 13.19 40.272 12.0473 39.8005 10.9609C39.3393 9.8643 38.7091 8.92143 37.9097 8.13228C37.1205 7.33289 36.1776 6.7026 35.081 6.24141C33.9947 5.76998 32.852 5.53426 31.6529 5.53426C30.4538 5.53426 29.3059 5.76998 28.2093 6.24141C27.123 6.7026 26.1801 7.33289 25.3807 8.13228C24.5916 8.92143 23.9613 9.8643 23.4898 10.9609ZM22.4752 18.2631C21.9525 17.0332 21.6912 15.7419 21.6912 14.3891C21.6912 13.0363 21.9525 11.7449 22.4752 10.5151C23.0082 9.28525 23.7153 8.22965 24.5967 7.34826C25.4883 6.45663 26.5491 5.74948 27.7789 5.2268C29.0087 4.69387 30.3001 4.42741 31.6529 4.42741C33.0057 4.42741 34.297 4.69387 35.5269 5.2268C36.7567 5.74948 37.8123 6.45663 38.6937 7.34826C39.5853 8.22965 40.2925 9.28525 40.8151 10.5151C41.3481 11.7449 41.6145 13.0363 41.6145 14.3891C41.6145 15.7419 41.3481 17.0332 40.8151 18.2631C40.2925 19.4929 39.5853 20.5536 38.6937 21.4452C37.8123 22.3266 36.7567 23.0338 35.5269 23.5667C34.297 24.0894 33.0057 24.3507 31.6529 24.3507C30.3001 24.3507 29.0087 24.0894 27.7789 23.5667C26.5491 23.0338 25.4883 22.3266 24.5967 21.4452C23.7153 20.5536 23.0082 19.4929 22.4752 18.2631ZM21.4606 10.1C20.8764 11.4631 20.5844 12.8928 20.5844 14.3891C20.5844 15.8854 20.8764 17.3202 21.4606 18.6935C22.0448 20.0566 22.8288 21.2352 23.8127 22.2293C24.8068 23.2131 25.9854 23.9972 27.3484 24.5813C28.7218 25.1655 30.1566 25.4576 31.6529 25.4576C33.1492 25.4576 34.5789 25.1655 35.9419 24.5813C37.3152 23.9972 38.4938 23.2131 39.4777 22.2293C40.4718 21.2352 41.261 20.0566 41.8451 18.6935C42.4293 17.3202 42.7214 15.8854 42.7214 14.3891C42.7214 12.8928 42.4293 11.4631 41.8451 10.1C41.261 8.7267 40.4718 7.54811 39.4777 6.56424C38.4938 5.57013 37.3152 4.78098 35.9419 4.19681C34.5789 3.61264 33.1492 3.32055 31.6529 3.32055C30.1566 3.32055 28.7218 3.61264 27.3484 4.19681C25.9854 4.78098 24.8068 5.57013 23.8127 6.56424C22.8288 7.54811 22.0448 8.7267 21.4606 10.1ZM20.446 19.1239C19.8003 17.6174 19.4775 16.0391 19.4775 14.3891C19.4775 12.739 19.8003 11.1659 20.446 9.66958C21.0917 8.16303 21.9577 6.86658 23.044 5.78022C24.1304 4.69387 25.4217 3.82786 26.918 3.1822C28.4246 2.53653 30.0028 2.2137 31.6529 2.2137C33.3029 2.2137 34.8761 2.53653 36.3724 3.1822C37.8789 3.82786 39.1754 4.69387 40.2617 5.78022C41.3481 6.86658 42.2141 8.16303 42.8597 9.66958C43.5054 11.1659 43.8282 12.739 43.8282 14.3891C43.8282 16.0391 43.5054 17.6174 42.8597 19.1239C42.2141 20.6202 41.3481 21.9116 40.2617 22.9979C39.1754 24.0843 37.8789 24.9503 36.3724 25.5959C34.8761 26.2416 33.3029 26.5644 31.6529 26.5644C30.0028 26.5644 28.4246 26.2416 26.918 25.5959C25.4217 24.9503 24.1304 24.0843 23.044 22.9979C21.9577 21.9116 21.0917 20.6202 20.446 19.1239Z"
    fill="black"
  />
  <path
    d="M60.4618 11.6219V25.4576H59.3549V11.6219C59.3549 11.3247 59.3037 11.0736 59.2012 10.8687C59.1089 10.6534 58.986 10.4895 58.8322 10.3767C58.6785 10.264 58.4735 10.1769 58.2173 10.1154C57.9713 10.0437 57.7305 10.0027 57.4948 9.99241C57.2591 9.97191 56.967 9.96166 56.6185 9.96166C56.2701 9.96166 55.978 9.97191 55.7423 9.99241C55.5065 10.0027 55.2606 10.0437 55.0044 10.1154C54.7584 10.1769 54.5586 10.264 54.4048 10.3767C54.2511 10.4895 54.123 10.6534 54.0205 10.8687C53.9283 11.0736 53.8821 11.3247 53.8821 11.6219V25.4576H52.7753V11.6219C52.7753 9.77719 54.0564 8.85481 56.6185 8.85481C59.1807 8.85481 60.4618 9.77719 60.4618 11.6219ZM62.6755 11.6219V25.4576H61.5686V11.6219C61.5686 10.3204 61.1074 9.35187 60.185 8.71646C59.2729 8.07079 58.0841 7.74796 56.6185 7.74796C55.153 7.74796 53.959 8.07079 53.0366 8.71646C52.1245 9.35187 51.6684 10.3204 51.6684 11.6219V25.4576H50.5616V11.6219C50.5616 10.5458 50.8383 9.62346 51.3917 8.85481C51.9452 8.08617 52.6677 7.52761 53.5593 7.17916C54.4612 6.82046 55.4809 6.64111 56.6185 6.64111C57.7561 6.64111 58.7707 6.82046 59.6624 7.17916C60.5642 7.52761 61.2919 8.08617 61.8453 8.85481C62.3987 9.62346 62.6755 10.5458 62.6755 11.6219ZM64.8892 11.6219V25.4576H63.7823V11.6219C63.7823 10.6586 63.5927 9.78744 63.2135 9.00854C62.8446 8.22965 62.3321 7.58911 61.6762 7.08692C61.0203 6.58474 60.2619 6.20042 59.401 5.93395C58.5401 5.66749 57.6126 5.53426 56.6185 5.53426C55.6244 5.53426 54.6969 5.66749 53.836 5.93395C52.9751 6.20042 52.2167 6.58474 51.5608 7.08692C50.9049 7.58911 50.3874 8.22965 50.0082 9.00854C49.6392 9.78744 49.4547 10.6586 49.4547 11.6219V25.4576H48.3479V11.6219C48.3479 10.5048 48.5631 9.49023 48.9935 8.5781C49.4342 7.66597 50.0287 6.9127 50.7768 6.31828C51.525 5.71361 52.4012 5.2473 53.4056 4.91934C54.4099 4.59138 55.4809 4.42741 56.6185 4.42741C57.7561 4.42741 58.8271 4.59138 59.8315 4.91934C60.8358 5.2473 61.7121 5.71361 62.4602 6.31828C63.2084 6.9127 63.7977 7.66597 64.2281 8.5781C64.6688 9.49023 64.8892 10.5048 64.8892 11.6219ZM67.1029 25.4576H65.996V11.6219C65.996 10.5048 65.7449 9.43386 65.2427 8.409C64.7508 7.38413 64.0846 6.50275 63.2443 5.76485C62.4039 5.0167 61.4046 4.42228 60.2465 3.98159C59.0884 3.5409 57.8791 3.32055 56.6185 3.32055C54.8865 3.32055 53.3133 3.64851 51.899 4.30442C50.495 4.95009 49.3676 5.91346 48.517 7.19453C47.6664 8.46536 47.241 9.94117 47.241 11.6219V25.4576H46.1342V11.6219C46.1342 10.2076 46.4109 8.90606 46.9643 7.71721C47.5177 6.52837 48.2659 5.53426 49.2088 4.73486C50.1619 3.93547 51.2739 3.31543 52.5447 2.87474C53.8258 2.43405 55.1837 2.2137 56.6185 2.2137C59.1602 2.2137 61.3636 2.85424 63.2289 4.13532C65.0941 2.85424 67.2976 2.2137 69.8392 2.2137C71.2741 2.2137 72.6269 2.43405 73.8977 2.87474C75.1788 3.31543 76.2908 3.93547 77.2336 4.73486C78.1867 5.53426 78.94 6.52837 79.4935 7.71721C80.0469 8.90606 80.3236 10.2076 80.3236 11.6219V25.4576H79.2167V11.6219C79.2167 9.95141 78.7914 8.48074 77.9408 7.20991C77.0902 5.92883 75.9577 4.96033 74.5434 4.30442C73.1393 3.64851 71.5713 3.32055 69.8392 3.32055C67.6665 3.32055 65.7705 3.83299 64.1513 4.85785C64.387 5.06282 64.6483 5.32928 64.9353 5.65724C66.3393 4.83735 67.974 4.42741 69.8392 4.42741C70.9768 4.42741 72.0478 4.59138 73.0522 4.91934C74.0566 5.2473 74.9328 5.71361 75.681 6.31828C76.4291 6.9127 77.0184 7.66597 77.4489 8.5781C77.8895 9.49023 78.1099 10.5048 78.1099 11.6219V25.4576H77.003V11.6219C77.003 10.6586 76.8134 9.78744 76.4342 9.00854C76.0653 8.22965 75.5529 7.58911 74.8969 7.08692C74.241 6.58474 73.4826 6.20042 72.6217 5.93395C71.7609 5.66749 70.8334 5.53426 69.8392 5.53426C68.2097 5.53426 66.8005 5.86734 65.6117 6.5335C65.7962 6.82046 65.9806 7.13817 66.1651 7.48662C67.1695 6.92295 68.3942 6.64111 69.8392 6.64111C70.9768 6.64111 71.9915 6.82046 72.8831 7.17916C73.785 7.52761 74.5126 8.08617 75.066 8.85481C75.6195 9.62346 75.8962 10.5458 75.8962 11.6219V25.4576H74.7893V11.6219C74.7893 10.3204 74.3281 9.35187 73.4058 8.71646C72.4936 8.07079 71.3048 7.74796 69.8392 7.74796C68.5069 7.74796 67.4257 7.99393 66.5956 8.48586C66.7288 8.87531 66.8313 9.24426 66.903 9.59271C67.5487 9.10078 68.5274 8.85481 69.8392 8.85481C72.4014 8.85481 73.6825 9.77719 73.6825 11.6219V25.4576H72.5756V11.6219C72.5756 11.3247 72.5244 11.0736 72.4219 10.8687C72.3297 10.6534 72.2067 10.4895 72.0529 10.3767C71.8992 10.264 71.6942 10.1769 71.438 10.1154C71.1921 10.0437 70.9512 10.0027 70.7155 9.99241C70.4798 9.97191 70.1877 9.96166 69.8392 9.96166C69.4908 9.96166 69.1987 9.97191 68.963 9.99241C68.7273 10.0027 68.4813 10.0437 68.2251 10.1154C67.9791 10.1769 67.7793 10.264 67.6255 10.3767C67.4718 10.4895 67.3437 10.6534 67.2412 10.8687C67.149 11.0736 67.1029 11.3247 67.1029 11.6219V25.4576Z"
    fill="black"
  />
  <path
    d="M89.7318 3.32055H90.8387V25.4576H89.7318V3.32055ZM87.5181 3.32055H88.625V25.4576H87.5181V3.32055ZM85.3044 3.32055H86.4113V25.4576H85.3044V3.32055ZM83.0907 3.32055H84.1976V25.4576H83.0907V3.32055Z"
    fill="black"
  />
  <path
    d="M111.192 16.5259L110.086 14.5121V3.32055H111.192V16.5259ZM113.406 20.3538L112.299 18.4783V3.32055H113.406V20.3538ZM98.1562 12.2522L99.2631 14.2661V25.4576H98.1562V12.2522ZM95.9425 8.27064L97.0493 10.2999V25.4576H95.9425V8.27064ZM96.3268 3.32055H97.6181L110.439 25.4576H109.148L96.3268 3.32055ZM98.9402 3.32055H100.247L113.053 25.4576H111.731L98.9402 3.32055ZM101.538 3.32055H102.83L114.513 23.536V3.32055H115.62V25.4576H114.313L101.538 3.32055ZM94.8356 5.2268V25.4576H93.7288V3.32055H95.0509L107.826 25.4576H106.55L94.8356 5.2268Z"
    fill="black"
  />
  <path
    d="M122.43 9.45436H123.537V25.4576H122.43V9.45436ZM118.003 4.42741V3.32055H134.605V4.42741H118.003ZM118.003 6.64111V5.53426H134.605V6.64111H118.003ZM118.003 8.85481V7.74796H134.605V8.85481H118.003ZM129.071 9.45436H130.178V25.4576H129.071V9.45436ZM126.857 9.45436H127.964V25.4576H126.857V9.45436ZM124.644 9.45436H125.751V25.4576H124.644V9.45436Z"
    fill="black"
  />
  <path
    d="M141.309 9.39047C141.309 9.59159 141.237 9.76604 141.093 9.9138C140.95 10.0616 140.777 10.1355 140.576 10.1355C140.387 10.1355 140.217 10.0657 140.065 9.92612C139.917 9.78246 139.843 9.61622 139.843 9.42741C139.843 9.23449 139.917 9.06415 140.065 8.91638C140.213 8.76862 140.383 8.69474 140.576 8.69474C140.769 8.69474 140.939 8.76451 141.087 8.90407C141.235 9.03952 141.309 9.20165 141.309 9.39047ZM145.784 3.1279C146.608 3.1279 147.217 3.30864 147.612 3.6701C148.007 4.03157 148.205 4.6074 148.205 5.39759V10H147.398L147.183 9.04169H147.133C146.839 9.41156 146.528 9.68477 146.2 9.8613C145.881 10.0378 145.435 10.1261 144.863 10.1261C144.25 10.1261 143.741 9.96638 143.338 9.64694C142.934 9.31909 142.732 8.81052 142.732 8.12121C142.732 7.44871 142.997 6.93172 143.527 6.57026C144.056 6.20038 144.872 5.99863 145.973 5.96501L147.12 5.92718V5.52368C147.12 4.96046 146.999 4.56957 146.755 4.35101C146.511 4.13245 146.166 4.02317 145.721 4.02317C145.368 4.02317 145.031 4.07781 144.712 4.18709C144.393 4.28796 144.094 4.40565 143.817 4.54015L143.476 3.70793C143.771 3.54821 144.119 3.41371 144.523 3.30443C144.926 3.18675 145.347 3.1279 145.784 3.1279ZM146.112 6.73418C145.271 6.7678 144.687 6.9023 144.359 7.13768C144.04 7.37305 143.88 7.7051 143.88 8.13382C143.88 8.5121 143.993 8.7895 144.22 8.96603C144.456 9.14256 144.754 9.23083 145.116 9.23083C145.687 9.23083 146.162 9.07531 146.54 8.76428C146.919 8.44485 147.108 7.95728 147.108 7.3016V6.69635L146.112 6.73418ZM153.445 3.11529C153.571 3.11529 153.705 3.1237 153.848 3.14051C153.999 3.14892 154.13 3.16573 154.239 3.19095L154.1 4.21231C153.991 4.18709 153.869 4.16607 153.735 4.14926C153.609 4.13245 153.487 4.12404 153.369 4.12404C153.024 4.12404 152.701 4.22071 152.398 4.41406C152.095 4.59899 151.852 4.86379 151.667 5.20845C151.49 5.5447 151.402 5.93979 151.402 6.39373V10H150.292V3.24139H151.2L151.326 4.4771H151.377C151.595 4.10723 151.877 3.78779 152.221 3.51879C152.566 3.24979 152.974 3.11529 153.445 3.11529ZM157.758 9.21822C157.926 9.21822 158.099 9.20561 158.275 9.18039C158.452 9.14677 158.595 9.11314 158.704 9.07952V9.92434C158.586 9.98319 158.418 10.0294 158.199 10.063C157.981 10.1051 157.771 10.1261 157.569 10.1261C157.216 10.1261 156.888 10.0672 156.585 9.94956C156.291 9.82347 156.052 9.60911 155.867 9.30649C155.682 9.00386 155.589 8.57935 155.589 8.03294V4.09882H154.631V3.56923L155.602 3.1279L156.043 1.69044H156.699V3.24139H158.653V4.09882H156.699V8.00772C156.699 8.41963 156.796 8.72646 156.989 8.92821C157.191 9.12155 157.447 9.21822 157.758 9.21822Z"
    fill="black"
  />
</svg>